<?xml version="1.0" encoding="UTF-8" standalone="no"?>
<svg
   width="25"
   height="25"
   viewBox="0 0 25 25"
   version="1.1"
   id="svg8"
   xmlns="http://www.w3.org/2000/svg"
   xmlns:svg="http://www.w3.org/2000/svg">

   <path
      d="M 3.5 0.5 C 1.8380034 0.5 0.5 1.8380034 0.5 3.5 L 0.5 7.5 L 24.5 7.5 L 24.5 3.5 C 24.5 1.8380034 23.161996 0.5 21.5 0.5 L 3.5 0.5 z M 0.5 8.6816406 L 0.5 21.5 C 0.5 23.161996 1.8380034 24.5 3.5 24.5 L 21.5 24.5 C 23.161996 24.5 24.5 23.161996 24.5 21.5 L 24.5 8.6816406 L 20.894531 8.6816406 L 20.287109 10.501953 C 20.071445 11.149106 19.461419 11.589844 18.779297 11.589844 L 16.5 11.589844 L 12.5 11.589844 L 8.5 11.589844 L 6.2207031 11.589844 C 5.5386099 11.589844 4.9285787 11.149128 4.7128906 10.501953 L 4.1054688 8.6816406 L 0.5 8.6816406 z M 5.3496094 8.6816406 L 5.8320312 10.128906 C 5.8885627 10.29853 6.0419381 10.410156 6.2207031 10.410156 L 8.5 10.410156 L 12.5 10.410156 L 16.5 10.410156 L 18.779297 10.410156 C 18.958173 10.410156 19.111429 10.298552 19.167969 10.128906 L 19.650391 8.6816406 L 5.3496094 8.6816406 z " />
</svg>