<?xml version="1.0" encoding="UTF-8" standalone="no"?>
<svg
   width="25"
   height="25"
   viewBox="0 0 25 25"
   version="1.1"
   id="svg8"
   xmlns="http://www.w3.org/2000/svg"
   xmlns:svg="http://www.w3.org/2000/svg">
   <path
      fill="#b8aa96"
      d="m 3.5,0.5 c -1.6619966,0 -3,1.3380034 -3,3 v 4 h 24 v -4 c 0,-1.6619966 -1.338004,-3 -3,-3 z"
      id="path332" />
   <path
      d="M 0.5,8.6816406 V 21.5 c 0,1.661996 1.3380034,3 3,3 h 18 c 1.661996,0 3,-1.338004 3,-3 V 8.6816406 h -3.605469 l -0.607422,1.8203124 c -0.215664,0.647153 -0.82569,1.087891 -1.507812,1.087891 H 16.5 h -4 -4 -2.2792969 c -0.6820932,0 -1.2921244,-0.440716 -1.5078125,-1.087891 L 4.1054688,8.6816406 Z m 4.8496094,0 0.4824218,1.4472654 c 0.056531,0.169624 0.2099069,0.28125 0.3886719,0.28125 H 8.5 h 4 4 2.279297 c 0.178876,0 0.332132,-0.111604 0.388672,-0.28125 l 0.482422,-1.4472654 z"
      id="path2" />
</svg>