<?xml version="1.0" encoding="UTF-8" standalone="no"?>
<svg
   width="25"
   height="25"
   viewBox="0 0 25 25"
   version="1.1"
   id="svg358"
   xmlns="http://www.w3.org/2000/svg"
   xmlns:svg="http://www.w3.org/2000/svg">
   <path
      id="rect352"
      d="M 4.484375 0.5 L 4.2949219 0.50585938 L 4.0917969 0.51953125 L 3.890625 0.54492188 L 3.6933594 0.58007812 L 3.5 0.625 L 3.3085938 0.6796875 L 3.1230469 0.7421875 L 2.9414062 0.8125 L 2.7636719 0.89257812 L 2.5917969 0.98242188 L 2.4238281 1.078125 L 2.2617188 1.1816406 L 2.1035156 1.2929688 L 1.953125 1.4121094 L 1.8085938 1.5371094 L 1.6699219 1.6699219 L 1.5371094 1.8085938 L 1.4121094 1.953125 L 1.2929688 2.1035156 L 1.1816406 2.2617188 L 1.078125 2.4238281 L 0.98242188 2.5917969 L 0.89257812 2.7636719 L 0.8125 2.9414062 L 0.7421875 3.1230469 L 0.6796875 3.3085938 L 0.625 3.5 L 0.58007812 3.6933594 L 0.54492188 3.890625 L 0.51953125 4.0917969 L 0.50585938 4.2949219 L 0.50390625 4.3222656 A 0.58999997 0.58999997 0 0 0 1.0800781 4.9277344 A 0.58999997 0.58999997 0 0 0 1.6835938 4.3515625 L 1.6953125 4.2089844 L 1.7128906 4.0683594 L 1.7382812 3.9296875 L 1.7695312 3.7929688 L 1.8066406 3.6582031 L 1.8515625 3.5273438 L 1.9003906 3.4003906 L 1.9570312 3.2753906 L 2.0195312 3.1523438 L 2.0878906 3.0351562 L 2.1601562 2.9199219 L 2.2382812 2.8105469 L 2.3222656 2.703125 L 2.4101562 2.6015625 L 2.5039062 2.5039062 L 2.6015625 2.4101562 L 2.703125 2.3222656 L 2.8105469 2.2382812 L 2.9199219 2.1601562 L 3.0351562 2.0878906 L 3.1523438 2.0195312 L 3.2753906 1.9570312 L 3.4003906 1.9003906 L 3.5273438 1.8515625 L 3.6582031 1.8066406 L 3.7929688 1.7695312 L 3.9296875 1.7382812 L 4.0683594 1.7128906 L 4.2089844 1.6953125 L 4.3535156 1.6835938 L 4.5 1.6796875 L 4.515625 1.6796875 L 6.859375 1.6796875 A 0.58999997 0.58999997 0 0 0 7.4492188 1.0898438 A 0.58999997 0.58999997 0 0 0 6.859375 0.5 L 4.5 0.5 A 0.58999997 0.58999997 0 0 0 4.4882812 0.50390625 A 0.58999997 0.58999997 0 0 0 4.484375 0.5 z M 9.2207031 0.5 A 0.58999997 0.58999997 0 0 0 8.6308594 1.0898438 A 0.58999997 0.58999997 0 0 0 9.2207031 1.6796875 L 16.300781 1.6796875 A 0.58999997 0.58999997 0 0 0 16.890625 1.0898438 A 0.58999997 0.58999997 0 0 0 16.300781 0.5 L 9.2207031 0.5 z M 18.660156 0.5 A 0.58999997 0.58999997 0 0 0 18.070312 1.0898438 A 0.58999997 0.58999997 0 0 0 18.660156 1.6796875 L 20.492188 1.6796875 L 20.646484 1.6835938 L 20.791016 1.6953125 L 20.931641 1.7128906 L 21.070312 1.7382812 L 21.207031 1.7695312 L 21.341797 1.8066406 L 21.472656 1.8515625 L 21.599609 1.9003906 L 21.724609 1.9570312 L 21.847656 2.0195312 L 21.964844 2.0878906 L 22.080078 2.1601562 L 22.189453 2.2382812 L 22.296875 2.3222656 L 22.398438 2.4101562 L 22.496094 2.5039062 L 22.589844 2.6015625 L 22.677734 2.703125 L 22.761719 2.8105469 L 22.839844 2.9199219 L 22.912109 3.0351562 L 22.980469 3.1523438 L 23.042969 3.2753906 L 23.099609 3.4003906 L 23.148438 3.5273438 L 23.193359 3.6582031 L 23.230469 3.7929688 L 23.261719 3.9296875 L 23.287109 4.0683594 L 23.304688 4.2089844 L 23.316406 4.3535156 L 23.316406 4.3964844 A 0.58999997 0.58999997 0 0 0 23.921875 4.9707031 A 0.58999997 0.58999997 0 0 0 24.496094 4.3652344 L 24.494141 4.2949219 L 24.480469 4.0917969 L 24.455078 3.890625 L 24.419922 3.6933594 L 24.375 3.5 L 24.320312 3.3085938 L 24.257812 3.1230469 L 24.1875 2.9414062 L 24.107422 2.7636719 L 24.017578 2.5917969 L 23.921875 2.4238281 L 23.818359 2.2617188 L 23.707031 2.1035156 L 23.587891 1.953125 L 23.462891 1.8085938 L 23.330078 1.6699219 L 23.191406 1.5371094 L 23.046875 1.4121094 L 22.896484 1.2929688 L 22.738281 1.1816406 L 22.576172 1.078125 L 22.408203 0.98242188 L 22.236328 0.89257812 L 22.058594 0.8125 L 21.876953 0.7421875 L 21.691406 0.6796875 L 21.5 0.625 L 21.306641 0.58007812 L 21.109375 0.54492188 L 20.908203 0.51953125 L 20.705078 0.50585938 L 20.507812 0.5 L 18.660156 0.5 z M 1.0898438 6.1074219 A 0.58999997 0.58999997 0 0 0 0.5 6.6972656 L 0.5 7.5 L 0.5 8.6816406 L 0.5 13.777344 A 0.58999997 0.58999997 0 0 0 1.0898438 14.367188 A 0.58999997 0.58999997 0 0 0 1.6796875 13.777344 L 1.6796875 8.6816406 L 4.1054688 8.6816406 L 4.7167969 10.513672 L 4.7578125 10.621094 L 4.8105469 10.736328 L 4.8730469 10.84375 L 4.9433594 10.947266 L 5.0195312 11.042969 L 5.1035156 11.132812 L 5.1953125 11.214844 L 5.2910156 11.291016 L 5.3925781 11.357422 L 5.5 11.417969 L 5.6113281 11.46875 L 5.7265625 11.511719 L 5.8457031 11.544922 L 5.96875 11.570312 L 6.09375 11.585938 L 6.2089844 11.589844 L 6.5429688 11.589844 C 6.8686914 11.589758 7.132722 11.325723 7.1328125 11 C 7.1327264 10.674274 6.8686945 10.410242 6.5429688 10.410156 L 6.2324219 10.410156 L 6.1875 10.408203 L 6.15625 10.404297 L 6.125 10.398438 L 6.09375 10.388672 L 6.0644531 10.378906 L 6.0351562 10.365234 L 6.0078125 10.349609 L 5.9804688 10.332031 L 5.9570312 10.3125 L 5.9335938 10.291016 L 5.9121094 10.267578 L 5.8925781 10.244141 L 5.8730469 10.216797 L 5.8574219 10.189453 L 5.84375 10.160156 L 5.828125 10.119141 L 5.3496094 8.6816406 L 19.650391 8.6816406 L 19.171875 10.119141 L 19.15625 10.160156 L 19.142578 10.189453 L 19.126953 10.216797 L 19.107422 10.244141 L 19.087891 10.267578 L 19.066406 10.291016 L 19.042969 10.3125 L 19.019531 10.332031 L 18.992188 10.349609 L 18.964844 10.365234 L 18.935547 10.378906 L 18.90625 10.388672 L 18.875 10.398438 L 18.84375 10.404297 L 18.8125 10.408203 L 18.767578 10.410156 L 18.341797 10.410156 C 18.016127 10.410242 17.752119 10.67433 17.751953 11 C 17.752039 11.325726 18.016071 11.589758 18.341797 11.589844 L 18.791016 11.589844 L 18.90625 11.585938 L 19.03125 11.570312 L 19.154297 11.544922 L 19.273438 11.511719 L 19.388672 11.46875 L 19.5 11.417969 L 19.607422 11.357422 L 19.708984 11.291016 L 19.804688 11.214844 L 19.896484 11.132812 L 19.980469 11.042969 L 20.056641 10.947266 L 20.126953 10.84375 L 20.189453 10.736328 L 20.242188 10.621094 L 20.283203 10.513672 L 20.894531 8.6816406 L 23.320312 8.6816406 L 23.320312 13.820312 A 0.58999997 0.58999997 0 0 0 23.910156 14.410156 A 0.58999997 0.58999997 0 0 0 24.5 13.820312 L 24.5 8.6816406 L 24.5 7.5 L 24.5 6.7402344 A 0.58999997 0.58999997 0 0 0 23.910156 6.1503906 A 0.58999997 0.58999997 0 0 0 23.320312 6.7402344 L 23.320312 7.5 L 1.6796875 7.5 L 1.6796875 6.6972656 A 0.58999997 0.58999997 0 0 0 1.0898438 6.1074219 z M 8.9023438 10.410156 C 8.576618 10.410242 8.3125861 10.674274 8.3125 11 C 8.3125861 11.325726 8.576618 11.589758 8.9023438 11.589844 L 12.5 11.589844 L 15.982422 11.589844 C 16.308148 11.589758 16.57218 11.325726 16.572266 11 C 16.57218 10.674274 16.308148 10.410242 15.982422 10.410156 L 12.5 10.410156 L 8.9023438 10.410156 z M 1.0898438 15.546875 A 0.58999997 0.58999997 0 0 0 0.5 16.136719 L 0.5 20.507812 L 0.50585938 20.705078 L 0.51953125 20.908203 L 0.54492188 21.109375 L 0.58007812 21.306641 L 0.625 21.5 L 0.6796875 21.691406 L 0.7421875 21.876953 L 0.8125 22.058594 L 0.89257812 22.236328 L 0.98242188 22.408203 L 1.078125 22.576172 L 1.1816406 22.738281 L 1.2929688 22.896484 L 1.4121094 23.046875 L 1.5371094 23.191406 L 1.6699219 23.330078 L 1.7070312 23.367188 A 0.58999997 0.58999997 0 0 0 2.5410156 23.345703 A 0.58999997 0.58999997 0 0 0 2.5214844 22.511719 L 2.5039062 22.496094 L 2.4101562 22.398438 L 2.3222656 22.296875 L 2.2382812 22.189453 L 2.1601562 22.080078 L 2.0878906 21.964844 L 2.0195312 21.847656 L 1.9570312 21.724609 L 1.9003906 21.599609 L 1.8515625 21.472656 L 1.8066406 21.341797 L 1.7695312 21.207031 L 1.7382812 21.070312 L 1.7128906 20.931641 L 1.6953125 20.791016 L 1.6835938 20.646484 L 1.6796875 20.492188 L 1.6796875 16.136719 A 0.58999997 0.58999997 0 0 0 1.0898438 15.546875 z M 23.910156 15.591797 A 0.58999997 0.58999997 0 0 0 23.320312 16.181641 L 23.320312 20.492188 L 23.316406 20.646484 L 23.304688 20.791016 L 23.287109 20.931641 L 23.261719 21.070312 L 23.230469 21.207031 L 23.193359 21.341797 L 23.148438 21.472656 L 23.099609 21.599609 L 23.042969 21.724609 L 22.980469 21.847656 L 22.912109 21.964844 L 22.839844 22.080078 L 22.761719 22.189453 L 22.677734 22.296875 L 22.589844 22.398438 L 22.496094 22.496094 L 22.447266 22.542969 A 0.58999997 0.58999997 0 0 0 22.427734 23.376953 A 0.58999997 0.58999997 0 0 0 23.261719 23.396484 L 23.330078 23.330078 L 23.462891 23.191406 L 23.587891 23.046875 L 23.707031 22.896484 L 23.818359 22.738281 L 23.921875 22.576172 L 24.017578 22.408203 L 24.107422 22.236328 L 24.1875 22.058594 L 24.257812 21.876953 L 24.320312 21.691406 L 24.375 21.5 L 24.419922 21.306641 L 24.455078 21.109375 L 24.480469 20.908203 L 24.494141 20.705078 L 24.5 20.507812 L 24.5 16.181641 A 0.58999997 0.58999997 0 0 0 23.910156 15.591797 z M 4.2636719 23.308594 A 0.58999997 0.58999997 0 0 0 3.6308594 23.853516 A 0.58999997 0.58999997 0 0 0 4.1738281 24.486328 L 4.2949219 24.494141 L 4.4921875 24.5 L 11.298828 24.5 A 0.58999997 0.58999997 0 0 0 11.888672 23.910156 A 0.58999997 0.58999997 0 0 0 11.298828 23.320312 L 4.5078125 23.320312 L 4.3535156 23.316406 L 4.2636719 23.308594 z M 20.693359 23.3125 L 20.646484 23.316406 L 20.492188 23.320312 L 13.658203 23.320312 A 0.58999997 0.58999997 0 0 0 13.068359 23.910156 A 0.58999997 0.58999997 0 0 0 13.658203 24.5 L 20.507812 24.5 L 20.705078 24.494141 L 20.783203 24.488281 A 0.58999997 0.58999997 0 0 0 21.326172 23.855469 A 0.58999997 0.58999997 0 0 0 20.693359 23.3125 z " />
</svg>