<svg width="9" height="14" viewBox="0 0 9 14" xmlns="http://www.w3.org/2000/svg">
  <path
    d="M4.50787 0C4.22331 2.81075e-05 3.9415 0.0350698 3.66241 0.105121C3.53109 0.138082 3.40174 0.177486 3.27406 0.222372L3.5122 0.870788C3.84109 0.753573 4.17949 0.688773 4.5053 0.689859H4.50596L4.61203 0.691205C5.19881 0.700755 5.78862 0.850355 6.3151 1.11843L6.63689 0.505895C6.51179 0.442378 6.38261 0.384143 6.24904 0.331535C5.70707 0.11051 5.12648 0 4.50787 0ZM0 0.315364V3.51011H0.700731V1.56991L1.37973 2.36135L1.91828 1.86018C2.08456 1.70545 2.26252 1.56125 2.44982 1.42857L2.04094 0.868767C1.82391 1.02314 1.6221 1.18612 1.43705 1.35849L0.541971 0.315364H0ZM7.75267 1.32985L7.24937 1.80795C7.61 2.1759 7.88728 2.64059 8.06934 3.14505C8.28339 3.74463 8.33838 4.4179 8.2736 5.09097L8.97057 5.15617C8.98947 4.96576 9 4.77039 9 4.56873C9 3.8841 8.8823 3.26146 8.6469 2.70081C8.42616 2.17005 8.12743 1.71368 7.75267 1.32985ZM0 4.8905V9.03049H0.700731V4.8905H0ZM8.00142 6.2249L7.95609 6.32935C7.72349 6.85739 7.36778 7.3309 6.92415 7.67857L6.92349 7.67974L6.92217 7.68043C6.49209 8.02014 5.96442 8.25801 5.40916 8.37821L5.55937 9.05172C5.79564 9.00079 6.02571 8.93298 6.24898 8.84637C6.79643 8.63612 7.2727 8.33424 7.67781 7.94071C8.08822 7.54195 8.41107 7.05967 8.64644 6.49394L8.00142 6.2249ZM1.55749 7.2035V10.4978H2.25821V8.39353C2.42792 8.49057 2.6031 8.58491 2.78376 8.67655C2.96989 8.76819 3.15602 8.85175 3.34215 8.92722C3.53376 8.9973 3.72536 9.05391 3.91697 9.09703C4.00039 9.11529 4.08383 9.12879 4.16726 9.13932L4.25382 8.45536C4.09184 8.43553 3.90941 8.387 3.71065 8.32278C3.35208 8.19866 2.98739 8.00984 2.60635 7.79498L1.55749 7.2035ZM0 10.4102L2.18654e-05 13.3103L0.700731 13.3103V10.4102H0ZM1.55749 11.8777V13.3103L2.18654e-05 13.3103V14L2.25821 14V11.8777H1.55749ZM6.00292 2.21563C5.90072 2.21563 5.80401 2.26954 5.71277 2.37736C5.62335 2.48518 5.54489 2.64151 5.47737 2.84636C5.40985 3.04582 5.35602 3.29111 5.31587 3.58221C5.27755 3.87332 5.25839 4.20216 5.25839 4.56873C5.25839 4.91914 5.27756 5.23989 5.31587 5.531C5.35602 5.8221 5.40985 6.07008 5.47737 6.27493C5.54489 6.47978 5.62335 6.63881 5.71277 6.75202C5.80401 6.86523 5.90072 6.92183 6.00292 6.92183C6.10511 6.92183 6.20182 6.86523 6.29306 6.75202C6.38431 6.63881 6.46368 6.47978 6.5312 6.27493C6.59872 6.07008 6.65164 5.8221 6.68996 5.531C6.73011 5.23989 6.75018 4.91914 6.75018 4.56873C6.75018 4.20216 6.73012 3.87332 6.68996 3.58221C6.65164 3.29111 6.59872 3.04582 6.5312 2.84636C6.46368 2.64151 6.38431 2.48518 6.29306 2.37736C6.20182 2.26954 6.10511 2.21563 6.00292 2.21563Z" />
</svg>