<svg width="9" height="14" viewBox="0 0 9 14" xmlns="http://www.w3.org/2000/svg">
  <path
    d="M4.5 0C5.11974 0 5.70384 0.110512 6.25229 0.331536C6.79525 0.54717 7.27239 0.854447 7.68373 1.25337C8.08958 1.65229 8.41042 2.13477 8.64625 2.70081C8.88208 3.26146 9 3.8841 9 4.56873C9 5.24798 8.88208 5.87062 8.64625 6.43666C8.41042 6.9973 8.08958 7.47978 7.68373 7.8841C7.27239 8.28841 6.79525 8.60377 6.25229 8.83019C5.70384 9.05121 5.11974 9.16173 4.5 9.16173C4.30256 9.16173 4.10786 9.14016 3.9159 9.09703C3.71846 9.05391 3.52651 8.9973 3.34004 8.92722C3.14808 8.85175 2.96435 8.76819 2.78885 8.67655C2.60786 8.5849 2.43236 8.49057 2.26234 8.39353V14H0V0.331536H0.542961L1.41499 1.35849C1.62888 1.16981 1.85649 0.991914 2.09781 0.824798C2.33364 0.657682 2.58318 0.514825 2.84644 0.396226C3.10969 0.272237 3.38117 0.175202 3.66088 0.105121C3.9351 0.0350404 4.21481 0 4.5 0ZM5.9808 2.21563C5.87843 2.21563 5.78245 2.28302 5.69287 2.41779C5.60146 2.54717 5.52194 2.72237 5.4543 2.9434C5.38666 3.15903 5.33364 3.4097 5.29525 3.69542C5.25503 3.97574 5.23492 4.26685 5.23492 4.56873C5.23492 4.87062 5.25503 5.16442 5.29525 5.45014C5.33364 5.73046 5.38666 5.98113 5.4543 6.20216C5.52194 6.41779 5.60146 6.59299 5.69287 6.72776C5.78245 6.85714 5.87843 6.92183 5.9808 6.92183C6.08318 6.92183 6.18007 6.87062 6.27148 6.76819C6.36106 6.66038 6.43967 6.50674 6.50731 6.30728C6.57313 6.10782 6.62523 5.86253 6.66362 5.57143C6.70201 5.27493 6.72121 4.9407 6.72121 4.56873C6.72121 4.20755 6.70201 3.8841 6.66362 3.59838C6.62523 3.30728 6.57313 3.0593 6.50731 2.85445C6.43967 2.6496 6.36106 2.49326 6.27148 2.38544C6.18007 2.27224 6.08318 2.21563 5.9808 2.21563Z" />
</svg>