<?xml version="1.0" encoding="UTF-8" standalone="no"?>
<svg
   xmlns:dc="http://purl.org/dc/elements/1.1/"
   xmlns:cc="http://creativecommons.org/ns#"
   xmlns:rdf="http://www.w3.org/1999/02/22-rdf-syntax-ns#"
   xmlns:svg="http://www.w3.org/2000/svg"
   xmlns="http://www.w3.org/2000/svg"
   id="svg8"
   version="1.1"
   fill="#1e293b"
   viewBox="0 0 117.35099 42.994999"
   height="162.5"
   width="443.5">
   <path
      id="path2153"
      d="m 76.744635,0.04960937 c -0.85954,8.622e-5 -1.71082,0.10757718 -2.55384,0.32246094 -0.39666,0.10110837 -0.787377,0.22198015 -1.173057,0.35966796 l 0.719337,1.98902583 c 0.99344,-0.3595585 2.01564,-0.5583335 2.99981,-0.5550048 h 0.002 l 0.3204,0.00413 c 1.77247,0.029294 3.554077,0.4881954 5.144377,1.3105143 l 0.97204,-1.8789551 C 82.797802,1.4066095 82.407582,1.2279726 82.004142,1.0665974 80.367032,0.38860092 78.614175,0.04960527 76.745555,0.04960527 Z M 63.127901,1.0169922 V 10.81691 h 2.11667 V 4.8653361 l 2.05104,2.4277587 1.626767,-1.5373739 c 0.50226,-0.4746292 1.03982,-0.9169612 1.60559,-1.3239501 l -1.23507,-1.7172077 c -0.65559,0.4735533 -1.265197,0.973479 -1.824167,1.5022337 l -2.70372,-3.1998046 z m 23.418198,3.1119548 -1.52032,1.4665772 c 1.08935,1.128673 1.92691,2.5541173 2.47685,4.1015583 0.64659,1.8392395 0.81269,3.9044785 0.61702,5.9691445 l 2.105297,0.199988 c 0.0571,-0.584067 0.0889,-1.18336 0.0889,-1.801957 0,-2.10013 -0.35553,-4.010084 -1.066597,-5.7298831 -0.66677,-1.6281048 -1.56913,-3.0280361 -2.70115,-4.2054279 z m -23.418198,10.92233 v 12.699484 h 2.11667 V 15.051277 Z m 24.169578,4.093291 -0.13694,0.320393 c -0.70259,1.619786 -1.77709,3.072284 -3.117127,4.138766 l -0.002,0.0036 -0.004,0.0021 c -1.29913,1.042059 -2.89303,1.77174 -4.57027,2.140438 l 0.45372,2.066024 c 0.7137,-0.156231 1.40867,-0.364259 2.08308,-0.629935 1.65365,-0.644928 3.092317,-1.570966 4.316017,-2.778127 1.23972,-1.223193 2.21492,-2.702572 2.92591,-4.437972 z m -19.464948,3.001884 v 10.105325 h 2.116657 v -6.454902 c 0.51263,0.29766 1.04179,0.587044 1.5875,0.868164 0.56224,0.28112 1.12448,0.537435 1.68672,0.768945 0.578767,0.214971 1.157557,0.388609 1.736327,0.520898 0.252,0.056 0.50402,0.09741 0.75603,0.129707 l 0.26148,-2.098062 c -0.48927,-0.06082 -1.04035,-0.209675 -1.64073,-0.406693 -1.083117,-0.380718 -2.184707,-0.959922 -3.335707,-1.619023 z m -4.70463,9.836609 7e-5,8.896069 2.1166,1.03e-4 v -8.896172 z m 4.70463,4.501533 v 4.394565 l -4.70456,2.4e-5 v 2.115505 l 6.821217,1.03e-4 V 36.484594 Z M 44.425195,0 c -1.86862,0 -3.629753,0.34726557 -5.283399,1.0417969 -1.637109,0.6779948 -3.075781,1.6371093 -4.316015,2.8773437 -1.223698,1.2402343 -2.191081,2.7285156 -2.902149,4.4648437 -0.711067,1.7197917 -1.066601,3.6132167 -1.066601,5.6802737 0,2.215885 0.355534,4.191992 1.066601,5.92832 0.711068,1.736328 1.678451,3.208073 2.902149,4.415234 1.240234,1.190625 2.678906,2.10013 4.316015,2.728516 1.653646,0.628385 3.414779,0.942578 5.283399,0.942578 0.859898,0 1.703258,-0.107487 2.530078,-0.322461 0.843362,-0.214974 1.661909,-0.504362 2.455664,-0.868164 0.793745,-0.380339 1.546159,-0.818555 2.257226,-1.314649 0.727607,-0.512629 1.41387,-1.058333 2.058789,-1.637109 l 2.629297,3.646289 h 1.63711 V 1.0666015 h -1.63711 L 53.726952,4.2167968 C 53.098567,3.6214843 52.42057,3.067513 51.692968,2.5548828 50.9819,2.0422526 50.229494,1.5957682 49.435742,1.2154297 48.641994,0.83509114 47.82344,0.53743486 46.980078,0.32246093 46.136718,0.10748691 45.285093,0 44.425195,0 Z m 61.813285,0 c -1.86862,0 -3.62976,0.33899737 -5.2834,1.0169922 -1.637115,0.6779948 -3.075787,1.628841 -4.316019,2.852539 -1.2237,1.2236979 -2.19108,2.7037109 -2.902148,4.440039 -0.711065,1.7363278 -1.066602,3.6545568 -1.066602,5.7546878 0,2.050521 0.355537,3.935677 1.066602,5.655468 0.711068,1.703255 1.678448,3.175 2.902148,4.415235 1.240232,1.240234 2.678904,2.207617 4.316019,2.902148 1.65364,0.694531 3.41478,1.041797 5.2834,1.041797 1.10795,0 2.18282,-0.132292 3.2246,-0.396875 1.05834,-0.248047 2.05879,-0.620117 3.00137,-1.116211 0.95911,-0.496094 1.84381,-1.099675 2.6541,-1.810742 0.82683,-0.711068 1.55444,-1.513086 2.18282,-2.406055 l -4.96094,-4.985742 c -0.26459,0.595313 -0.61185,1.141016 -1.0418,1.637109 -0.41341,0.479557 -0.89297,0.892969 -1.43867,1.240235 -0.52917,0.330729 -1.09967,0.587044 -1.71152,0.768945 -0.61185,0.181902 -1.2485,0.272852 -1.90996,0.272852 -0.26459,0 -0.52916,-0.0083 -0.79375,-0.02481 -0.26459,-0.03307 -0.52916,-0.09095 -0.79375,-0.173633 l 12.7,-15.3044919 C 116.72259,4.8865234 115.99499,4.0845052 115.16816,3.3734375 114.34134,2.6458332 113.44837,2.0339843 112.48926,1.5378906 111.54668,1.0417968 110.54622,0.66145832 109.48789,0.396875 108.42956,0.13229164 107.34643,0 106.23848,0 Z M 13.568164,0.04960937 c -1.86862,0 -3.6297524,0.33899716 -5.2833985,1.01699213 C 6.6476564,1.7280597 5.2089843,2.670638 3.96875,3.8943359 2.745052,5.1180338 1.7776697,6.5980463 1.0666015,8.3343749 0.35553359,10.054166 0,11.964129 0,14.064258 c 0,2.083593 0.35553359,3.993555 1.0666015,5.729882 0.7110682,1.719792 1.6784505,3.199806 2.9021485,4.440039 1.2402343,1.240235 2.6789064,2.207617 4.3160155,2.902149 1.6536461,0.677995 3.4147785,1.016992 5.2833985,1.016992 0.595312,0 1.182357,-0.06615 1.761133,-0.198438 0.595313,-0.132291 1.174088,-0.305924 1.736328,-0.520898 0.578776,-0.23151 1.132747,-0.487828 1.661914,-0.768945 0.545703,-0.281121 1.074869,-0.570508 1.5875,-0.868164 v 17.197916 h 6.821289 V 1.0666015 h -1.63711 L 22.869922,4.2167968 C 22.225001,3.6380208 21.538738,3.0923177 20.811133,2.5796875 20.100066,2.0670578 19.347656,1.628841 18.553906,1.265039 17.760156,0.88470104 16.941601,0.58704432 16.098242,0.37207031 15.271419,0.15709628 14.428059,0.04960937 13.568164,0.04960937 Z M 9.1033202,6.8460937 c 0.3086769,0 0.5980721,0.2067052 0.868164,0.6201171 0.2756048,0.3968758 0.5153878,0.9343097 0.7193358,1.6123047 0.203947,0.6614578 0.363804,1.4304035 0.479557,2.3068355 0.12127,0.859895 0.181902,1.752865 0.181902,2.678907 0,0.926041 -0.06064,1.827276 -0.181902,2.703711 -0.115753,0.859895 -0.27561,1.62884 -0.479557,2.306835 -0.203948,0.66146 -0.443731,1.198894 -0.7193358,1.612305 -0.2700919,0.396875 -0.5594871,0.595313 -0.868164,0.595313 -0.308678,0 -0.6008272,-0.157096 -0.8764323,-0.471289 C 7.956796,20.480404 7.7197682,20.009114 7.5158202,19.397265 7.3173854,18.785416 7.1602853,18.033008 7.0445312,17.140039 6.9287802,16.230534 6.8708984,15.205273 6.8708984,14.064258 c 0,-1.107943 0.057879,-2.100131 0.1736328,-2.976563 C 7.1602853,10.194726 7.3173854,9.4340488 7.5158202,8.805664 7.7197682,8.177278 7.956796,7.6977213 8.2268879,7.3669921 8.502493,7.0197262 8.7946422,6.8460937 9.1033202,6.8460937 Z m 35.3218748,0 c 0.926044,0 1.794203,0.2067057 2.604492,0.6201171 0.826818,0.396875 1.546159,0.9343099 2.158008,1.6123047 0.611851,0.6614583 1.091403,1.4304035 1.438672,2.3068355 0.363799,0.859897 0.545703,1.752865 0.545703,2.678907 0,0.926041 -0.181904,1.827277 -0.545703,2.703711 -0.347269,0.859895 -0.826821,1.62884 -1.438672,2.306835 -0.611849,0.66146 -1.33119,1.198894 -2.158008,1.612305 -0.810289,0.396875 -1.678448,0.595313 -2.604492,0.595313 -0.926042,0 -1.802474,-0.157096 -2.629297,-0.471289 -0.810287,-0.314193 -1.521354,-0.777214 -2.133203,-1.389063 -0.595313,-0.611849 -1.066602,-1.364257 -1.413867,-2.257226 -0.347266,-0.909505 -0.520899,-1.943034 -0.520899,-3.100586 0,-1.157552 0.173633,-2.182813 0.520899,-3.075782 0.347265,-0.909505 0.818554,-1.6701818 1.413867,-2.2820308 0.611849,-0.6118489 1.322916,-1.0748698 2.133203,-1.3890625 0.826823,-0.3141927 1.703255,-0.471289 2.629297,-0.471289 z m 36.835476,0 c -0.308689,0 -0.60081,0.1653648 -0.876432,0.4960937 -0.270108,0.3307289 -0.507106,0.810287 -0.711068,1.4386719 -0.203959,0.6118489 -0.366556,1.3642587 -0.487825,2.2572267 -0.115763,0.89297 -0.17363,1.901693 -0.173633,3.026172 0,1.074869 0.05789,2.058788 0.173633,2.951757 0.121269,0.892969 0.283866,1.653647 0.487825,2.282032 0.203962,0.628385 0.44096,1.116211 0.711068,1.463476 0.275622,0.347266 0.567743,0.520899 0.876432,0.520899 0.308692,0 0.600813,-0.173633 0.876432,-0.520899 0.275622,-0.347265 0.515385,-0.835091 0.719336,-1.463476 0.20396,-0.628385 0.3638,-1.389063 0.479558,-2.282032 0.121271,-0.892969 0.181901,-1.876888 0.181901,-2.951757 0,-1.124479 -0.0606,-2.133202 -0.181901,-3.026172 C 83.220239,10.145118 83.060399,9.3927082 82.856439,8.7808593 82.652488,8.1524744 82.412725,7.6729163 82.137103,7.3421874 81.861484,7.0114585 81.569363,6.8460937 81.260671,6.8460937 Z m 24.977809,0 c 0.33072,0 0.64492,0.016536 0.94257,0.049609 0.31419,0.033073 0.62839,0.107487 0.94258,0.2232422 l -7.88789,10.4675781 c -0.13229,-0.23151 -0.23978,-0.496093 -0.32246,-0.79375 -0.08269,-0.297656 -0.157112,-0.60358 -0.223242,-0.917773 -0.04962,-0.330729 -0.09095,-0.65319 -0.124024,-0.967383 -0.01648,-0.314193 -0.02479,-0.595312 -0.02479,-0.843359 0,-1.107943 0.173633,-2.100131 0.520896,-2.976563 0.34727,-0.892969 0.81856,-1.6536459 1.41387,-2.2820313 0.61185,-0.6283855 1.32291,-1.1079427 2.1332,-1.4386719 0.82682,-0.3472656 1.70326,-0.5208984 2.6293,-0.5208984 z" />
</svg>