<svg
   version="1.1"
   viewBox="0 0 42.997826 42.994999"
   height="162.5"
   fill="#1e293b"
   width="162.5" xmlns="http://www.w3.org/2000/svg"
   xmlns:svg="http://www.w3.org/2000/svg">
   <path
      id="path2153"
      d="M 32.1299 12.3124 C 31.5501 12.3193 30.9758 12.385 30.4071 12.5299 C 30.1395 12.5981 29.8759 12.6797 29.6158 12.7726 L 30.101 14.1144 C 30.7712 13.8718 31.4608 13.74 32.1247 13.74 L 32.1261 13.74 L 32.3422 13.7427 C 33.5379 13.7624 34.7398 14.072 35.8126 14.6267 L 36.4684 13.3592 C 36.2134 13.2278 35.9502 13.1073 35.678 12.9985 C 34.5736 12.5411 33.3911 12.2973 32.1306 12.3124 Z M 22.9441 12.965 L 22.9441 19.576 L 24.372 19.576 L 24.372 15.5611 L 25.7556 17.1989 L 26.853 16.1617 C 27.1918 15.8416 27.5545 15.5432 27.9362 15.2686 L 27.103 14.1102 C 26.6607 14.4296 26.2495 14.7669 25.8724 15.1236 L 24.0485 12.965 Z M 38.742 15.0643 L 37.7164 16.0537 C 38.4513 16.8151 39.0163 17.7767 39.3873 18.8206 C 39.8235 20.0613 39.9355 21.4546 39.8035 22.8474 L 41.2237 22.9823 C 41.2623 22.5883 41.2837 22.184 41.2837 21.7667 C 41.2837 20.3499 41.0439 19.0615 40.5642 17.9013 C 40.1144 16.803 39.5057 15.8586 38.742 15.0643 Z M 22.9441 22.4325 L 22.9441 30.9996 L 24.372 30.9996 L 24.372 22.4325 Z M 39.2489 25.1939 L 39.1565 25.41 C 38.6825 26.5027 37.9577 27.4826 37.0537 28.202 L 37.0523 28.2044 L 37.0496 28.2059 C 36.1732 28.9089 35.0979 29.4011 33.9665 29.6499 L 34.2726 31.0436 C 34.754 30.9382 35.2228 30.7979 35.6778 30.6186 C 36.7934 30.1836 37.7639 29.5589 38.5894 28.7445 C 39.4257 27.9193 40.0836 26.9214 40.5632 25.7507 Z M 26.1178 27.2189 L 26.1178 34.036 L 27.5457 34.036 L 27.5457 29.6815 C 27.8915 29.8823 28.2485 30.0775 28.6166 30.2672 C 28.9959 30.4568 29.3752 30.6297 29.7545 30.7859 C 30.1449 30.9309 30.5354 31.0481 30.9258 31.1373 C 31.0958 31.1751 31.2658 31.203 31.4358 31.2248 L 31.6122 29.8095 C 31.2822 29.7684 30.9104 29.668 30.5054 29.5351 C 29.7747 29.2783 29.0316 28.8875 28.2551 28.4429 Z M 22.9441 33.8547 L 22.9441 39.856 L 24.372 39.8561 L 24.372 33.8547 Z M 26.1178 36.8915 L 26.1178 39.856 L 22.9441 39.856 L 22.9441 41.2832 L 27.5457 41.2832 L 27.5457 36.8915 Z M 10.8672 1.76287 C 9.60662 1.76287 8.41856 1.99156 7.30301 2.44894 C 6.19862 2.89516 5.22809 3.53102 4.39142 4.35653 C 3.56592 5.18203 2.91332 6.18045 2.43363 7.35178 C 1.95395 8.51195 1.7141 9.80041 1.7141 11.2172 C 1.7141 12.6228 1.95395 13.9112 2.43363 15.0825 C 2.91332 16.2427 3.56592 17.2411 4.39142 18.0778 C 5.22809 18.9145 6.19862 19.5671 7.30301 20.0356 C 8.41856 20.493 9.60662 20.7217 10.8672 20.7217 C 11.2688 20.7217 11.6648 20.677 12.0553 20.5878 C 12.4569 20.4985 12.8473 20.3814 13.2266 20.2364 C 13.617 20.0802 13.9907 19.9073 14.3477 19.7177 C 14.7158 19.528 15.0728 19.3328 15.4186 19.132 L 15.4186 30.7337 L 20.0203 30.7337 L 20.0203 2.44894 L 18.9159 2.44894 L 17.1422 4.57406 C 16.7071 4.18362 16.2441 3.81548 15.7533 3.46966 C 15.2736 3.12384 14.766 2.82822 14.2306 2.5828 C 13.6951 2.32623 13.1429 2.12543 12.574 1.9804 C 12.0162 1.83538 11.4473 1.76287 10.8672 1.76287 Z M 7.85521 6.34778 C 8.06344 6.34778 8.25867 6.48723 8.44087 6.76612 C 8.62679 7.03385 8.78855 7.3964 8.92614 7.85378 C 9.06372 8.3 9.17156 8.81873 9.24965 9.40997 C 9.33145 9.99006 9.37236 10.5925 9.37236 11.2172 C 9.37236 11.8419 9.33145 12.4498 9.24965 13.0411 C 9.17156 13.6212 9.06372 14.1399 8.92614 14.5973 C 8.78855 15.0435 8.62679 15.4061 8.44087 15.6849 C 8.25867 15.9527 8.06344 16.0865 7.85521 16.0865 C 7.64697 16.0865 7.44989 15.9806 7.26397 15.7686 C 7.08176 15.5455 6.92186 15.2276 6.78428 14.8148 C 6.65041 14.4021 6.54444 13.8945 6.46635 13.2921 C 6.38826 12.6785 6.34921 11.9869 6.34921 11.2172 C 6.34921 10.4697 6.38826 9.80041 6.46635 9.20917 C 6.54444 8.60677 6.65041 8.09362 6.78428 7.66971 C 6.92186 7.2458 7.08176 6.92229 7.26397 6.69918 C 7.44989 6.46492 7.64697 6.34778 7.85521 6.34778 Z M 35.1764 16.8973 C 34.9682 16.8973 34.7711 17.0089 34.5852 17.232 C 34.403 17.4551 34.2431 17.7786 34.1055 18.2025 C 33.9679 18.6153 33.8582 19.1228 33.7764 19.7252 C 33.6983 20.3276 33.6593 21.0081 33.6593 21.7667 C 33.6593 22.4918 33.6983 23.1555 33.7764 23.7579 C 33.8582 24.3603 33.9679 24.8735 34.1055 25.2974 C 34.2431 25.7213 34.403 26.0504 34.5852 26.2847 C 34.7711 26.5189 34.9682 26.6361 35.1764 26.6361 C 35.3847 26.6361 35.5817 26.5189 35.7677 26.2847 C 35.9536 26.0504 36.1154 25.7213 36.2529 25.2974 C 36.3905 24.8735 36.4984 24.3603 36.5765 23.7579 C 36.6583 23.1555 36.6992 22.4918 36.6992 21.7667 C 36.6992 21.0081 36.6583 20.3276 36.5765 19.7252 C 36.4984 19.1228 36.3905 18.6153 36.2529 18.2025 C 36.1154 17.7786 35.9536 17.4551 35.7677 17.232 C 35.5817 17.0089 35.3847 16.8973 35.1764 16.8973 Z"
   />
</svg>